<?xml version="1.0" encoding="UTF-8"?>
<svg id="b" data-name="Calque 2" xmlns="http://www.w3.org/2000/svg" width="510.49" height="489.47" viewBox="0 0 510.49 489.47">
  <defs>
    <style>
      .d {
        fill: #ddab45;
      }
    </style>
  </defs>
  <g id="c" data-name="Calque 1">
    <path class="d" d="M293.42,27.74l32.74,100.75c5.37,16.54,20.79,27.74,38.18,27.74h105.93c38.89,0,55.06,49.76,23.6,72.62l-85.7,62.27c-14.07,10.22-19.96,28.34-14.58,44.88l32.74,100.75c12.02,36.98-30.31,67.74-61.77,44.88l-85.7-62.27c-14.07-10.22-33.12-10.22-47.19,0l-85.7,62.27c-31.46,22.86-73.79-7.9-61.77-44.88l32.74-100.75c5.37-16.54-.51-34.66-14.58-44.88l-85.7-62.27c-31.46-22.86-15.29-72.62,23.6-72.62h105.93c17.39,0,32.8-11.2,38.18-27.74l32.74-100.75c12.02-36.98,64.34-36.98,76.36,0Z"/>
  </g>
</svg>